<mxfile host="app.diagrams.net" modified="2023-11-30T16:47:05.435Z" agent="Mozilla/5.0 (Windows NT 10.0; Win64; x64) AppleWebKit/537.36 (KHTML, like Gecko) Chrome/119.0.0.0 Safari/537.36" version="22.1.5" etag="5ClRk3YtddwDx2L7AzU0" type="github">
  <diagram name="Page-1" id="5i1S_Z5frnHxRlIEbU_h">
    <mxGraphModel>
      <root>
        <mxCell id="0" />
        <mxCell id="1" parent="0" />
      </root>
    </mxGraphModel>
  </diagram>
</mxfile>
